# xmcd CD database file
#
# Track frame offsets:
#	183
#	15633
#	30193
#	47515
#	63408
#	75448
#	86918
#	100410
#	116598
#	129290
#	140798
#	154408
#	163113
#	178578
#	190550
#	207698
#
# Disc length: 2910 seconds
#
# Revision: 4
# Processed by: cddbd v1.5.2PL0 Copyright (c) Steve Scherf et al.
# Submitted via: CDex 1.51
#
DISCID=d40b5c10
DTITLE=Various Artist - Country Collection
DYEAR=1993
DGENRE=Country
TTITLE0=Emmylou Harris - (You never can tell) C'est la vie
TTITLE1=The Bellamy Brothers - Let your love flown
TTITLE2=Dolly Parton - Silver and Gold
TTITLE3=Willie Nelson - Always on my mind
TTITLE4=Tammy Wynette - Stand by your man
TTITLE5=Freddy Fender - Before the next teardrop falls
TTITLE6=B.J.Thomas - I just can't help believing
TTITLE7=Billie Jo Spears - Blanket on the ground
TTITLE8=Lynn Andersson - Rose garden
TTITLE9=Johnny Cash - A thing called love
TTITLE10=Jimmy Dean - Bid bad John
TTITLE11=Sommerset - Loveletters in the sand
TTITLE12=Ricky van Shelton and Dolly Parton - Rockin' years
TTITLE13=Telly Savalas - Some broken hearts never mend
TTITLE14=Dr. Hook - Sylvia's mother
TTITLE15=Kris Kristofferson - Help me make it through the night
EXTD=YEAR: 1993
EXTT0=
EXTT1=
EXTT2=
EXTT3=
EXTT4=
EXTT5=
EXTT6=
EXTT7=
EXTT8=
EXTT9=
EXTT10=
EXTT11=
EXTT12=
EXTT13=
EXTT14=
EXTT15=
PLAYORDER=
